<svg xmlns="http://www.w3.org/2000/svg" viewBox="0 0 64 64"><circle cx="32" cy="32" r="31" fill="#000"/><path fill="#25F4EE" d="M39 14c1 6 4.5 9.5 10 10v7c-4-.1-7.5-1.3-10-3.4V40c0 8-6.2 13-13 13-7 0-12-5.4-12-12s5-12 12-12c1 0 2 .1 3 .4v7.3a6 6 0 1 0 4 5.7V14h6Z"/><path fill="#FE2C55" d="M42 14c1 5 3.7 8 8 9v7c-3-.2-5.7-1.1-8-2.7V40c0 7-5.2 12-12 12-4 0-7.5-1.9-9.7-4.8A12 12 0 0 0 26 53c7 0 13-5 13-13V27.6c2.5 2.1 6 3.3 10 3.4v-7c-5.5-.5-9-4-10-10h3Z"/><path fill="#fff" d="M39 14v26a9 9 0 1 1-10-8.9v7.3a4.8 4.8 0 1 0 4 4.8V14h6Z"/></svg>