<svg xmlns="http://www.w3.org/2000/svg" viewBox="0 0 64 64"><circle cx="32" cy="32" r="31" fill="#25D366"/><path fill="#fff" d="M46.5 17.6A20.5 20.5 0 0 0 14.2 42l-2.9 10.6 10.9-2.8A20.6 20.6 0 0 0 52.7 32c0-5.5-2.2-10.6-6.2-14.4ZM32 48.9c-3.3 0-6.5-.9-9.3-2.6l-.7-.4-6.5 1.7 1.7-6.3-.4-.7A16.8 16.8 0 1 1 32 48.9Zm9.2-12.5c-.5-.3-3-1.5-3.5-1.7-.5-.2-.8-.3-1.2.3-.4.5-1.4 1.7-1.8 2.1-.3.4-.6.4-1.1.1-3-1.5-5-2.7-7-6.1-.5-.9.5-.8 1.5-2.7.2-.4.1-.8-.1-1.1-.1-.3-1.2-2.8-1.6-3.9-.4-1-.9-.9-1.2-.9h-1c-.4 0-1 .1-1.5.7-.5.5-2 2-2 4.9 0 2.9 2.1 5.7 2.4 6.1.3.4 4.1 6.3 10 8.8 3.7 1.6 5.2 1.7 7.1 1.4 1.1-.2 3-1.2 3.4-2.4.4-1.2.4-2.2.3-2.4-.1-.2-.4-.3-.9-.6Z"/></svg>